<mxfile host="app.diagrams.net" modified="2021-12-11T17:33:17.301Z" agent="5.0 (Windows NT 10.0; Win64; x64) AppleWebKit/537.36 (KHTML, like Gecko) Chrome/96.0.4664.93 Safari/537.36" etag="kfnUSu7u2t4k7oBB11I8" version="15.9.1" type="github">
  <diagram id="C5RBs43oDa-KdzZeNtuy" name="Page-1">
    <mxGraphModel dx="1302" dy="922" grid="1" gridSize="10" guides="1" tooltips="1" connect="1" arrows="1" fold="1" page="1" pageScale="1" pageWidth="827" pageHeight="1169" math="0" shadow="0">
      <root>
        <mxCell id="WIyWlLk6GJQsqaUBKTNV-0" />
        <mxCell id="WIyWlLk6GJQsqaUBKTNV-1" parent="WIyWlLk6GJQsqaUBKTNV-0" />
        <mxCell id="2bUrFyERgZB-LMlyc5oO-50" value="Kubernates" style="swimlane;fillColor=#e1d5e7;strokeColor=#9673a6;" vertex="1" parent="WIyWlLk6GJQsqaUBKTNV-1">
          <mxGeometry x="40" y="40" width="685" height="490" as="geometry" />
        </mxCell>
        <mxCell id="2bUrFyERgZB-LMlyc5oO-4" value="Node" style="swimlane;" vertex="1" parent="2bUrFyERgZB-LMlyc5oO-50">
          <mxGeometry x="15" y="40" width="310" height="250" as="geometry" />
        </mxCell>
        <mxCell id="2bUrFyERgZB-LMlyc5oO-31" style="edgeStyle=orthogonalEdgeStyle;rounded=0;orthogonalLoop=1;jettySize=auto;html=1;exitX=0.5;exitY=1;exitDx=0;exitDy=0;" edge="1" parent="2bUrFyERgZB-LMlyc5oO-4" source="2bUrFyERgZB-LMlyc5oO-5" target="2bUrFyERgZB-LMlyc5oO-27">
          <mxGeometry relative="1" as="geometry" />
        </mxCell>
        <mxCell id="2bUrFyERgZB-LMlyc5oO-5" value="Pod" style="swimlane;fillColor=#dae8fc;strokeColor=#6c8ebf;" vertex="1" parent="2bUrFyERgZB-LMlyc5oO-4">
          <mxGeometry x="10" y="30" width="140" height="80" as="geometry" />
        </mxCell>
        <mxCell id="WIyWlLk6GJQsqaUBKTNV-3" value="microservice" style="rounded=1;whiteSpace=wrap;html=1;fontSize=12;glass=0;strokeWidth=1;shadow=0;fillColor=#dae8fc;strokeColor=#6c8ebf;" parent="2bUrFyERgZB-LMlyc5oO-5" vertex="1">
          <mxGeometry x="9.999999999999773" y="30" width="120" height="40" as="geometry" />
        </mxCell>
        <mxCell id="2bUrFyERgZB-LMlyc5oO-30" style="edgeStyle=orthogonalEdgeStyle;rounded=0;orthogonalLoop=1;jettySize=auto;html=1;exitX=0.5;exitY=1;exitDx=0;exitDy=0;" edge="1" parent="2bUrFyERgZB-LMlyc5oO-4" source="2bUrFyERgZB-LMlyc5oO-6" target="2bUrFyERgZB-LMlyc5oO-27">
          <mxGeometry relative="1" as="geometry">
            <Array as="points">
              <mxPoint x="230" y="126" />
              <mxPoint x="80" y="126" />
            </Array>
          </mxGeometry>
        </mxCell>
        <mxCell id="2bUrFyERgZB-LMlyc5oO-6" value="Pod" style="swimlane;fillColor=#dae8fc;strokeColor=#6c8ebf;" vertex="1" parent="2bUrFyERgZB-LMlyc5oO-4">
          <mxGeometry x="160" y="30" width="140" height="80" as="geometry" />
        </mxCell>
        <mxCell id="2bUrFyERgZB-LMlyc5oO-7" value="microservice" style="rounded=1;whiteSpace=wrap;html=1;fontSize=12;glass=0;strokeWidth=1;shadow=0;fillColor=#dae8fc;strokeColor=#6c8ebf;" vertex="1" parent="2bUrFyERgZB-LMlyc5oO-6">
          <mxGeometry x="9.999999999999773" y="30" width="120" height="40" as="geometry" />
        </mxCell>
        <mxCell id="2bUrFyERgZB-LMlyc5oO-33" style="edgeStyle=orthogonalEdgeStyle;rounded=0;orthogonalLoop=1;jettySize=auto;html=1;exitX=0.5;exitY=0;exitDx=0;exitDy=0;entryX=0.5;entryY=0;entryDx=0;entryDy=0;" edge="1" parent="2bUrFyERgZB-LMlyc5oO-4" source="2bUrFyERgZB-LMlyc5oO-8" target="2bUrFyERgZB-LMlyc5oO-27">
          <mxGeometry relative="1" as="geometry" />
        </mxCell>
        <mxCell id="2bUrFyERgZB-LMlyc5oO-8" value="Pod" style="swimlane;fillColor=#dae8fc;strokeColor=#6c8ebf;" vertex="1" parent="2bUrFyERgZB-LMlyc5oO-4">
          <mxGeometry x="160" y="146" width="140" height="80" as="geometry" />
        </mxCell>
        <mxCell id="2bUrFyERgZB-LMlyc5oO-9" value="microservice" style="rounded=1;whiteSpace=wrap;html=1;fontSize=12;glass=0;strokeWidth=1;shadow=0;fillColor=#dae8fc;strokeColor=#6c8ebf;" vertex="1" parent="2bUrFyERgZB-LMlyc5oO-8">
          <mxGeometry x="9.999999999999773" y="30" width="120" height="40" as="geometry" />
        </mxCell>
        <mxCell id="2bUrFyERgZB-LMlyc5oO-34" style="edgeStyle=orthogonalEdgeStyle;rounded=0;orthogonalLoop=1;jettySize=auto;html=1;exitX=0.5;exitY=1;exitDx=0;exitDy=0;entryX=0.5;entryY=1;entryDx=0;entryDy=0;" edge="1" parent="2bUrFyERgZB-LMlyc5oO-4" source="2bUrFyERgZB-LMlyc5oO-27" target="2bUrFyERgZB-LMlyc5oO-4">
          <mxGeometry relative="1" as="geometry">
            <Array as="points">
              <mxPoint x="80" y="240" />
              <mxPoint x="155" y="240" />
            </Array>
          </mxGeometry>
        </mxCell>
        <mxCell id="2bUrFyERgZB-LMlyc5oO-27" value="Pod" style="swimlane;fillColor=#ffe6cc;strokeColor=#d79b00;" vertex="1" parent="2bUrFyERgZB-LMlyc5oO-4">
          <mxGeometry x="10" y="146" width="140" height="80" as="geometry" />
        </mxCell>
        <mxCell id="2bUrFyERgZB-LMlyc5oO-29" value="Promtail (gathers logs from .log files)" style="rounded=1;whiteSpace=wrap;html=1;fontSize=12;glass=0;strokeWidth=1;shadow=0;fillColor=#ffe6cc;strokeColor=#d79b00;" vertex="1" parent="2bUrFyERgZB-LMlyc5oO-27">
          <mxGeometry x="9.999999999999773" y="30" width="120" height="40" as="geometry" />
        </mxCell>
        <mxCell id="2bUrFyERgZB-LMlyc5oO-36" value="Node" style="swimlane;" vertex="1" parent="2bUrFyERgZB-LMlyc5oO-50">
          <mxGeometry x="365" y="40" width="310" height="250" as="geometry" />
        </mxCell>
        <mxCell id="2bUrFyERgZB-LMlyc5oO-37" style="edgeStyle=orthogonalEdgeStyle;rounded=0;orthogonalLoop=1;jettySize=auto;html=1;exitX=0.5;exitY=1;exitDx=0;exitDy=0;" edge="1" parent="2bUrFyERgZB-LMlyc5oO-36" source="2bUrFyERgZB-LMlyc5oO-38" target="2bUrFyERgZB-LMlyc5oO-47">
          <mxGeometry relative="1" as="geometry" />
        </mxCell>
        <mxCell id="2bUrFyERgZB-LMlyc5oO-38" value="Pod" style="swimlane;fillColor=#dae8fc;strokeColor=#6c8ebf;" vertex="1" parent="2bUrFyERgZB-LMlyc5oO-36">
          <mxGeometry x="10" y="30" width="140" height="80" as="geometry" />
        </mxCell>
        <mxCell id="2bUrFyERgZB-LMlyc5oO-39" value="microservice" style="rounded=1;whiteSpace=wrap;html=1;fontSize=12;glass=0;strokeWidth=1;shadow=0;fillColor=#dae8fc;strokeColor=#6c8ebf;" vertex="1" parent="2bUrFyERgZB-LMlyc5oO-38">
          <mxGeometry x="9.999999999999773" y="30" width="120" height="40" as="geometry" />
        </mxCell>
        <mxCell id="2bUrFyERgZB-LMlyc5oO-40" style="edgeStyle=orthogonalEdgeStyle;rounded=0;orthogonalLoop=1;jettySize=auto;html=1;exitX=0.5;exitY=1;exitDx=0;exitDy=0;" edge="1" parent="2bUrFyERgZB-LMlyc5oO-36" source="2bUrFyERgZB-LMlyc5oO-41" target="2bUrFyERgZB-LMlyc5oO-47">
          <mxGeometry relative="1" as="geometry">
            <Array as="points">
              <mxPoint x="230" y="126" />
              <mxPoint x="80" y="126" />
            </Array>
          </mxGeometry>
        </mxCell>
        <mxCell id="2bUrFyERgZB-LMlyc5oO-41" value="Pod" style="swimlane;fillColor=#dae8fc;strokeColor=#6c8ebf;" vertex="1" parent="2bUrFyERgZB-LMlyc5oO-36">
          <mxGeometry x="160" y="30" width="140" height="80" as="geometry" />
        </mxCell>
        <mxCell id="2bUrFyERgZB-LMlyc5oO-42" value="microservice" style="rounded=1;whiteSpace=wrap;html=1;fontSize=12;glass=0;strokeWidth=1;shadow=0;fillColor=#dae8fc;strokeColor=#6c8ebf;" vertex="1" parent="2bUrFyERgZB-LMlyc5oO-41">
          <mxGeometry x="9.999999999999773" y="30" width="120" height="40" as="geometry" />
        </mxCell>
        <mxCell id="2bUrFyERgZB-LMlyc5oO-43" style="edgeStyle=orthogonalEdgeStyle;rounded=0;orthogonalLoop=1;jettySize=auto;html=1;exitX=0.5;exitY=0;exitDx=0;exitDy=0;entryX=0.5;entryY=0;entryDx=0;entryDy=0;" edge="1" parent="2bUrFyERgZB-LMlyc5oO-36" source="2bUrFyERgZB-LMlyc5oO-44" target="2bUrFyERgZB-LMlyc5oO-47">
          <mxGeometry relative="1" as="geometry" />
        </mxCell>
        <mxCell id="2bUrFyERgZB-LMlyc5oO-44" value="Pod" style="swimlane;fillColor=#dae8fc;strokeColor=#6c8ebf;" vertex="1" parent="2bUrFyERgZB-LMlyc5oO-36">
          <mxGeometry x="160" y="146" width="140" height="80" as="geometry" />
        </mxCell>
        <mxCell id="2bUrFyERgZB-LMlyc5oO-45" value="microservice" style="rounded=1;whiteSpace=wrap;html=1;fontSize=12;glass=0;strokeWidth=1;shadow=0;fillColor=#dae8fc;strokeColor=#6c8ebf;" vertex="1" parent="2bUrFyERgZB-LMlyc5oO-44">
          <mxGeometry x="9.999999999999773" y="30" width="120" height="40" as="geometry" />
        </mxCell>
        <mxCell id="2bUrFyERgZB-LMlyc5oO-46" style="edgeStyle=orthogonalEdgeStyle;rounded=0;orthogonalLoop=1;jettySize=auto;html=1;exitX=0.5;exitY=1;exitDx=0;exitDy=0;entryX=0.5;entryY=1;entryDx=0;entryDy=0;" edge="1" parent="2bUrFyERgZB-LMlyc5oO-36" source="2bUrFyERgZB-LMlyc5oO-47" target="2bUrFyERgZB-LMlyc5oO-36">
          <mxGeometry relative="1" as="geometry">
            <Array as="points">
              <mxPoint x="80" y="240" />
              <mxPoint x="155" y="240" />
            </Array>
          </mxGeometry>
        </mxCell>
        <mxCell id="2bUrFyERgZB-LMlyc5oO-47" value="Pod" style="swimlane;fillColor=#ffe6cc;strokeColor=#d79b00;" vertex="1" parent="2bUrFyERgZB-LMlyc5oO-36">
          <mxGeometry x="10" y="146" width="140" height="80" as="geometry" />
        </mxCell>
        <mxCell id="2bUrFyERgZB-LMlyc5oO-48" value="Promtail (gathers logs from .log files)" style="rounded=1;whiteSpace=wrap;html=1;fontSize=12;glass=0;strokeWidth=1;shadow=0;fillColor=#ffe6cc;strokeColor=#d79b00;" vertex="1" parent="2bUrFyERgZB-LMlyc5oO-47">
          <mxGeometry x="9.999999999999773" y="30" width="120" height="40" as="geometry" />
        </mxCell>
        <mxCell id="2bUrFyERgZB-LMlyc5oO-51" value="Services in Kubernetes or External" style="swimlane;fillColor=#f8cecc;strokeColor=#b85450;" vertex="1" parent="WIyWlLk6GJQsqaUBKTNV-1">
          <mxGeometry x="70" y="700" width="295" height="200" as="geometry" />
        </mxCell>
        <mxCell id="2bUrFyERgZB-LMlyc5oO-2" value="grafana loki" style="rounded=1;whiteSpace=wrap;html=1;fontSize=12;glass=0;strokeWidth=1;shadow=0;fillColor=#f8cecc;strokeColor=#b85450;" vertex="1" parent="2bUrFyERgZB-LMlyc5oO-51">
          <mxGeometry x="10" y="39" width="120" height="40" as="geometry" />
        </mxCell>
        <mxCell id="2bUrFyERgZB-LMlyc5oO-49" style="edgeStyle=orthogonalEdgeStyle;rounded=0;orthogonalLoop=1;jettySize=auto;html=1;exitX=0.5;exitY=1;exitDx=0;exitDy=0;entryX=0.5;entryY=0;entryDx=0;entryDy=0;" edge="1" parent="WIyWlLk6GJQsqaUBKTNV-1" source="2bUrFyERgZB-LMlyc5oO-36" target="2bUrFyERgZB-LMlyc5oO-2">
          <mxGeometry relative="1" as="geometry">
            <Array as="points">
              <mxPoint x="610" y="330" />
              <mxPoint x="610" y="640" />
              <mxPoint x="140" y="640" />
            </Array>
          </mxGeometry>
        </mxCell>
        <mxCell id="2bUrFyERgZB-LMlyc5oO-54" style="edgeStyle=orthogonalEdgeStyle;rounded=0;orthogonalLoop=1;jettySize=auto;html=1;exitX=0.5;exitY=1;exitDx=0;exitDy=0;" edge="1" parent="WIyWlLk6GJQsqaUBKTNV-1" source="2bUrFyERgZB-LMlyc5oO-4" target="2bUrFyERgZB-LMlyc5oO-2">
          <mxGeometry relative="1" as="geometry" />
        </mxCell>
      </root>
    </mxGraphModel>
  </diagram>
</mxfile>
